<mxfile host="65bd71144e">
    <diagram id="t2MkYpM8heMqChUO8Ba5" name="Page-1">
        <mxGraphModel dx="564" dy="1643" grid="1" gridSize="10" guides="1" tooltips="1" connect="1" arrows="1" fold="1" page="1" pageScale="1" pageWidth="827" pageHeight="1169" math="0" shadow="0">
            <root>
                <mxCell id="0"/>
                <mxCell id="1" parent="0"/>
                <mxCell id="4" value="" style="edgeStyle=none;html=1;" edge="1" parent="1" source="2" target="3">
                    <mxGeometry relative="1" as="geometry"/>
                </mxCell>
                <mxCell id="23" value="" style="edgeStyle=none;html=1;fontFamily=Verdana;fontSize=14;" edge="1" parent="1" source="2" target="22">
                    <mxGeometry relative="1" as="geometry"/>
                </mxCell>
                <mxCell id="2" value="&lt;font style=&quot;font-size: 14px&quot;&gt;&amp;nbsp;string [ ] Arrray&lt;br&gt;string [ ] NewArray&lt;/font&gt;" style="shape=parallelogram;perimeter=parallelogramPerimeter;whiteSpace=wrap;html=1;fixedSize=1;align=center;" vertex="1" parent="1">
                    <mxGeometry x="180" y="20" width="180" height="60" as="geometry"/>
                </mxCell>
                <mxCell id="8" style="edgeStyle=none;html=1;exitX=0.5;exitY=1;exitDx=0;exitDy=0;entryX=0.5;entryY=0;entryDx=0;entryDy=0;fontFamily=Verdana;fontSize=14;" edge="1" parent="1" source="3" target="7">
                    <mxGeometry relative="1" as="geometry"/>
                </mxCell>
                <mxCell id="3" value="countNewArray=0&lt;br&gt;" style="whiteSpace=wrap;html=1;fontFamily=Verdana;horizontal=1;fontSize=15;" vertex="1" parent="1">
                    <mxGeometry x="190" y="110" width="160" height="50" as="geometry"/>
                </mxCell>
                <mxCell id="10" value="" style="edgeStyle=none;html=1;fontFamily=Verdana;fontSize=14;" edge="1" parent="1" source="7" target="9">
                    <mxGeometry relative="1" as="geometry"/>
                </mxCell>
                <mxCell id="7" value="i=0, array.Length,&lt;br&gt;1" style="shape=hexagon;perimeter=hexagonPerimeter2;whiteSpace=wrap;html=1;fixedSize=1;fontFamily=Verdana;fontSize=14;" vertex="1" parent="1">
                    <mxGeometry x="210" y="189" width="120" height="71" as="geometry"/>
                </mxCell>
                <mxCell id="9" value="array[i].Length &amp;lt;=3" style="rhombus;whiteSpace=wrap;html=1;fontSize=14;fontFamily=Verdana;" vertex="1" parent="1">
                    <mxGeometry x="180" y="290" width="180" height="80" as="geometry"/>
                </mxCell>
                <mxCell id="11" value="&lt;div style=&quot;background-color: rgb(255 , 255 , 255) ; font-family: &amp;#34;consolas&amp;#34; , &amp;#34;courier new&amp;#34; , monospace ; line-height: 19px&quot;&gt;&lt;h4&gt;&lt;span style=&quot;font-weight: normal&quot;&gt;&lt;span style=&quot;color: #001080&quot;&gt;newArray&lt;/span&gt;[&lt;span style=&quot;color: #001080&quot;&gt;countNewArray&lt;/span&gt;] = &lt;span style=&quot;color: #001080&quot;&gt;array&lt;/span&gt;[&lt;span style=&quot;color: #001080&quot;&gt;i&lt;/span&gt;];&lt;br&gt;&amp;nbsp; &amp;nbsp; &amp;nbsp; &amp;nbsp; &amp;nbsp; &amp;nbsp; &lt;span style=&quot;color: #001080&quot;&gt;countNewArray&lt;/span&gt;++;&lt;/span&gt;&lt;/h4&gt;&lt;/div&gt;" style="whiteSpace=wrap;html=1;fontSize=14;fontFamily=Verdana;" vertex="1" parent="1">
                    <mxGeometry x="60" y="380" width="190" height="80" as="geometry"/>
                </mxCell>
                <mxCell id="13" value="" style="endArrow=classic;html=1;fontFamily=Verdana;fontSize=14;exitX=0;exitY=0.5;exitDx=0;exitDy=0;entryX=0.334;entryY=-0.037;entryDx=0;entryDy=0;entryPerimeter=0;" edge="1" parent="1" source="9" target="11">
                    <mxGeometry width="50" height="50" relative="1" as="geometry">
                        <mxPoint x="270" y="320" as="sourcePoint"/>
                        <mxPoint x="320" y="270" as="targetPoint"/>
                        <Array as="points">
                            <mxPoint x="123" y="330"/>
                        </Array>
                    </mxGeometry>
                </mxCell>
                <mxCell id="14" value="" style="endArrow=classic;html=1;fontFamily=Verdana;fontSize=14;exitX=0.401;exitY=1.003;exitDx=0;exitDy=0;exitPerimeter=0;" edge="1" parent="1" source="11">
                    <mxGeometry width="50" height="50" relative="1" as="geometry">
                        <mxPoint x="270" y="320" as="sourcePoint"/>
                        <mxPoint x="280" y="490" as="targetPoint"/>
                        <Array as="points">
                            <mxPoint x="136" y="490"/>
                        </Array>
                    </mxGeometry>
                </mxCell>
                <mxCell id="15" value="" style="endArrow=classic;html=1;fontFamily=Verdana;fontSize=14;exitX=1;exitY=0.5;exitDx=0;exitDy=0;" edge="1" parent="1" source="9">
                    <mxGeometry width="50" height="50" relative="1" as="geometry">
                        <mxPoint x="270" y="320" as="sourcePoint"/>
                        <mxPoint x="280" y="490" as="targetPoint"/>
                        <Array as="points">
                            <mxPoint x="390" y="330"/>
                            <mxPoint x="390" y="490"/>
                        </Array>
                    </mxGeometry>
                </mxCell>
                <mxCell id="16" value="да" style="text;html=1;align=center;verticalAlign=middle;resizable=0;points=[];autosize=1;strokeColor=none;fillColor=none;fontSize=14;fontFamily=Verdana;" vertex="1" parent="1">
                    <mxGeometry x="135" y="310" width="30" height="20" as="geometry"/>
                </mxCell>
                <mxCell id="17" value="нет" style="text;html=1;align=center;verticalAlign=middle;resizable=0;points=[];autosize=1;strokeColor=none;fillColor=none;fontSize=14;fontFamily=Verdana;" vertex="1" parent="1">
                    <mxGeometry x="360" y="310" width="40" height="20" as="geometry"/>
                </mxCell>
                <mxCell id="18" value="" style="endArrow=classic;html=1;fontFamily=Verdana;fontSize=14;entryX=0;entryY=0.5;entryDx=0;entryDy=0;" edge="1" parent="1" target="7">
                    <mxGeometry width="50" height="50" relative="1" as="geometry">
                        <mxPoint x="280" y="490" as="sourcePoint"/>
                        <mxPoint x="320" y="270" as="targetPoint"/>
                        <Array as="points">
                            <mxPoint x="280" y="520"/>
                            <mxPoint x="40" y="520"/>
                            <mxPoint x="40" y="225"/>
                        </Array>
                    </mxGeometry>
                </mxCell>
                <mxCell id="21" value="" style="endArrow=classic;html=1;fontFamily=Verdana;fontSize=14;exitX=1;exitY=0.5;exitDx=0;exitDy=0;" edge="1" parent="1" source="7">
                    <mxGeometry width="50" height="50" relative="1" as="geometry">
                        <mxPoint x="270" y="300" as="sourcePoint"/>
                        <mxPoint x="280" y="580" as="targetPoint"/>
                        <Array as="points">
                            <mxPoint x="430" y="225"/>
                            <mxPoint x="430" y="540"/>
                            <mxPoint x="280" y="540"/>
                        </Array>
                    </mxGeometry>
                </mxCell>
                <mxCell id="22" value="&lt;font style=&quot;font-size: 14px&quot;&gt;Начало&lt;/font&gt;" style="ellipse;whiteSpace=wrap;html=1;fontFamily=Verdana;" vertex="1" parent="1">
                    <mxGeometry x="220" y="-50" width="100" height="50" as="geometry"/>
                </mxCell>
                <mxCell id="24" value="Конец" style="ellipse;whiteSpace=wrap;html=1;fontFamily=Verdana;fontSize=14;" vertex="1" parent="1">
                    <mxGeometry x="220" y="580" width="120" height="50" as="geometry"/>
                </mxCell>
            </root>
        </mxGraphModel>
    </diagram>
</mxfile>